# xmcd
#
# Track frame offsets:
# 150
# 12926
# 33243
# 50339
# 64575
# 92698
# 110850
# 136494
# 154562
# 178126
# 199866
# 220119
# 233332
# 251671
# 266775
# 289551
# 313791
# 332845
#
# Disc length: 4799 seconds
#
# Revision: 1
# Processed by: cddbd v1.5.2PL0 Copyright (c) Steve Scherf et al.
# Submitted via: CedeCatalogueitor 2.6.0.6 http://personales.ya.com/cdcatalogueitor
#
DISCID=0112bd12
DTITLE=ROBERTO CARLOS - En Vivo
DYEAR=2008
DGENRE=
TTITLE0=APERTURA
TTITLE1=EMOCIONES
TTITLE2=QUE SERA DE TI
TTITLE3=CAMA Y MESA
TTITLE4=DETALLES
TTITLE5=DESAHOGO
TTITLE6=EL DIA QUE ME QUIERAS
TTITLE7=MI CACHARRITO (EN PORTUGUES)
TTITLE8=MUJER PEQUEÑA
TTITLE9=ACROSTICO
TTITLE10=PROPUESTA
TTITLE11=CONCAVO Y CONVEXO
TTITLE12=LA DISTANCIA
TTITLE13=AMIGO
TTITLE14=JESUS CRISTO (PORTUGUES)
TTITLE15=AMADA AMANTE
TTITLE16=EL GATO QUE ESTA TRISTE Y AZUL
TTITLE17=UN MILLON DE AMIGOS
EXTD=
EXTT0=
EXTT1=
EXTT2=
EXTT3=
EXTT4=
EXTT5=
EXTT6=
EXTT7=
EXTT8=
EXTT9=
EXTT10=
EXTT11=
EXTT12=
EXTT13=
EXTT14=
EXTT15=
EXTT16=
EXTT17=
PLAYORDER=
